<?xml version="1.0" encoding="UTF-8" standalone="no"?>
<!-- Generator: Adobe Illustrator 16.0.0, SVG Export Plug-In . SVG Version: 6.00 Build 0)  -->

<svg
   xmlns:dc="http://purl.org/dc/elements/1.1/"
   xmlns:cc="http://creativecommons.org/ns#"
   xmlns:rdf="http://www.w3.org/1999/02/22-rdf-syntax-ns#"
   xmlns:svg="http://www.w3.org/2000/svg"
   xmlns="http://www.w3.org/2000/svg"
   xmlns:sodipodi="http://sodipodi.sourceforge.net/DTD/sodipodi-0.dtd"
   xmlns:inkscape="http://www.inkscape.org/namespaces/inkscape"
   version="1.1"
   id="Layer_1"
   x="0px"
   y="0px"
   width="422.39899"
   height="422.39999"
   viewBox="0 0 422.39899 422.39999"
   enable-background="new 0 0 512 512"
   xml:space="preserve"
   inkscape:version="0.91 r13725"
   sodipodi:docname="facebook.svg"><metadata
     id="metadata15"><rdf:RDF><cc:Work
         rdf:about=""><dc:format>image/svg+xml</dc:format><dc:type
           rdf:resource="http://purl.org/dc/dcmitype/StillImage" /><dc:title></dc:title></cc:Work></rdf:RDF></metadata><defs
     id="defs13" /><sodipodi:namedview
     pagecolor="#e03737"
     bordercolor="#666666"
     borderopacity="1"
     objecttolerance="10"
     gridtolerance="10"
     guidetolerance="10"
     inkscape:pageopacity="0"
     inkscape:pageshadow="2"
     inkscape:window-width="1920"
     inkscape:window-height="1029"
     id="namedview11"
     showgrid="false"
     inkscape:zoom="1.9318182"
     inkscape:cx="124.75244"
     inkscape:cy="212.23528"
     inkscape:window-x="0"
     inkscape:window-y="1107"
     inkscape:window-maximized="1"
     inkscape:current-layer="Layer_1"
     fit-margin-top="0"
     fit-margin-left="0"
     fit-margin-right="0"
     fit-margin-bottom="0" /><path
     d="M 384.38203,4.6823527 46.244872,4.1647057 C 11.90415,4.1121342 5.7176468,31.652 5.7176469,43.212941 L 5.1999998,368.40824 C 5.1420455,404.81619 20.707372,417.2 57.11546,417.2 l 190.03113,0 c -0.325,-54 0.077,-114.134 -0.185,-166.387 -11.06403,-0.112 -22.13806,-0.684 -33.20208,-0.854 0.041,-18.467 0.017,-37.317 0.024,-55.781 11.05702,-0.137 22.12105,-0.163 33.17808,-0.268 0.338,-17.957 -0.338,-36.025 0.354,-53.966 1.103,-14.205 6.51901,-28.563 17.14004,-38.377 12.85903,-12.239 31.14207,-16.397 48.38712,-16.912 18.23304,-0.163 36.46809,-0.076 54.71013,-0.068 0.072,19.24 0.072,38.482 -0.008,57.722 -11.78903,-0.02 -23.58506,0.023 -35.37409,-0.025 -7.46801,-0.467 -15.14503,5.198 -16.50404,12.609 -0.177,12.875 -0.064,25.757 -0.057,38.628 17.28505,0.073 34.57709,-0.02 51.86213,0.044 -1.264,18.629 -3.58101,37.168 -6.28502,55.637 -15.27203,0.137 -30.55407,1.514 -45.81811,1.602 -0.129,52.236 0.04,112.395 -0.093,166.395 l 61.85822,0 c 23.4669,0 40.00546,-13.42044 40.06603,-33.26235 L 418.23529,44.765882 C 418.75394,14.052 393.35463,4.2793366 384.38203,4.6823527 Z"
     id="path9"
     style="fill:#f7f7f7;fill-opacity:1;stroke:#f7f7f7;stroke-width:10.39999962;stroke-miterlimit:4;stroke-dasharray:none;stroke-opacity:1"
     inkscape:connector-curvature="0"
     sodipodi:nodetypes="cscsscccccccccccccccccsscc" /></svg>