<?xml version="1.0" encoding="UTF-8" standalone="no"?>
<!-- Generator: Adobe Illustrator 19.0.0, SVG Export Plug-In . SVG Version: 6.00 Build 0)  -->

<svg
   xmlns:dc="http://purl.org/dc/elements/1.1/"
   xmlns:cc="http://creativecommons.org/ns#"
   xmlns:rdf="http://www.w3.org/1999/02/22-rdf-syntax-ns#"
   xmlns:svg="http://www.w3.org/2000/svg"
   xmlns="http://www.w3.org/2000/svg"
   xmlns:sodipodi="http://sodipodi.sourceforge.net/DTD/sodipodi-0.dtd"
   xmlns:inkscape="http://www.inkscape.org/namespaces/inkscape"
   version="1.1"
   id="Capa_1"
   x="0px"
   y="0px"
   viewBox="0 0 440.31209 286.36999"
   xml:space="preserve"
   width="472.88083"
   height="307.55203"
   inkscape:version="0.92.2 (5c3e80d, 2017-08-06)"
   sodipodi:docname="ham-menu.svg"><metadata
     id="metadata53"><rdf:RDF><cc:Work
         rdf:about=""><dc:format>image/svg+xml</dc:format><dc:type
           rdf:resource="http://purl.org/dc/dcmitype/StillImage" /><dc:title /></cc:Work></rdf:RDF></metadata><defs
     id="defs51" /><sodipodi:namedview
     pagecolor="#ffffff"
     bordercolor="#666666"
     borderopacity="1"
     objecttolerance="10"
     gridtolerance="10"
     guidetolerance="10"
     inkscape:pageopacity="0"
     inkscape:pageshadow="2"
     inkscape:window-width="1920"
     inkscape:window-height="1052"
     id="namedview49"
     showgrid="false"
     showguides="true"
     inkscape:guide-bbox="true"
     inkscape:zoom="1.3037281"
     inkscape:cx="376.63428"
     inkscape:cy="122.62467"
     inkscape:window-x="0"
     inkscape:window-y="0"
     inkscape:window-maximized="1"
     inkscape:current-layer="g9"
     fit-margin-top="0"
     fit-margin-left="0"
     fit-margin-right="0"
     fit-margin-bottom="0" /><g
     id="g3"
     transform="translate(-18.212967,-88.563021)"
     style="fill:#303030;fill-opacity:1"><g
       id="g5"
       style="fill:#303030;fill-opacity:1"><g
         id="g4210"
         style="fill:#303030;fill-opacity:1"><g
           id="g9"
           style="fill:#303030;fill-opacity:1"><path
             d="m 434.06359,88.563021 -391.389184,0 c -13.502973,0 -24.461439,15.757809 -24.461439,35.174489 0,19.41669 10.958466,35.17449 24.461439,35.17449 l 391.389184,0 c 13.45372,0 24.46144,-15.7578 24.46144,-35.17449 0,-19.41668 -11.00772,-35.174489 -24.46144,-35.174489 z"
             id="path15"
             inkscape:connector-curvature="0"
             style="fill:#545451;fill-opacity:1" /><path
             style="fill:#545451;fill-opacity:1"
             inkscape:connector-curvature="0"
             id="path4204"
             d="m 434.06359,196.57355 -391.389184,0 c -13.502973,0 -24.461439,15.75778 -24.461439,35.17446 0,19.41669 10.958466,35.17449 24.461439,35.17449 l 391.389184,0 c 13.45372,0 24.46144,-15.7578 24.46144,-35.17449 0,-19.41668 -11.00772,-35.17446 -24.46144,-35.17446 z" /><path
             d="m 434.06359,304.58405 -391.389184,0 c -13.502973,0 -24.461439,15.75778 -24.461439,35.17446 0,19.41669 10.958466,35.17449 24.461439,35.17449 l 391.389184,0 c 13.45372,0 24.46144,-15.7578 24.46144,-35.17449 0,-19.41668 -11.00772,-35.17446 -24.46144,-35.17446 z"
             id="path4206"
             inkscape:connector-curvature="0"
             style="fill:#545451;fill-opacity:1" /></g></g></g></g><g
     id="g19"
     transform="translate(-18.212967,-88.563021)" /><g
     id="g21"
     transform="translate(-18.212967,-88.563021)" /><g
     id="g23"
     transform="translate(-18.212967,-88.563021)" /><g
     id="g25"
     transform="translate(-18.212967,-88.563021)" /><g
     id="g27"
     transform="translate(-18.212967,-88.563021)" /><g
     id="g29"
     transform="translate(-18.212967,-88.563021)" /><g
     id="g31"
     transform="translate(-18.212967,-88.563021)" /><g
     id="g33"
     transform="translate(-18.212967,-88.563021)" /><g
     id="g35"
     transform="translate(-18.212967,-88.563021)" /><g
     id="g37"
     transform="translate(-18.212967,-88.563021)" /><g
     id="g39"
     transform="translate(-18.212967,-88.563021)" /><g
     id="g41"
     transform="translate(-18.212967,-88.563021)" /><g
     id="g43"
     transform="translate(-18.212967,-88.563021)" /><g
     id="g45"
     transform="translate(-18.212967,-88.563021)" /><g
     id="g47"
     transform="translate(-18.212967,-88.563021)" /></svg>