<?xml version="1.0" encoding="UTF-8" standalone="no"?>
<svg
   xmlns:dc="http://purl.org/dc/elements/1.1/"
   xmlns:cc="http://creativecommons.org/ns#"
   xmlns:rdf="http://www.w3.org/1999/02/22-rdf-syntax-ns#"
   xmlns:svg="http://www.w3.org/2000/svg"
   xmlns="http://www.w3.org/2000/svg"
   xmlns:sodipodi="http://sodipodi.sourceforge.net/DTD/sodipodi-0.dtd"
   xmlns:inkscape="http://www.inkscape.org/namespaces/inkscape"
   width="100%"
   height="100%"
   viewBox="0 0 450 146"
   version="1.1"
   xml:space="preserve"
   style="fill-rule:evenodd;clip-rule:evenodd;stroke-linejoin:round;stroke-miterlimit:1.41421;"
   id="svg47"
   sodipodi:docname="logo.svg"
   inkscape:version="0.92.2 (5c3e80d, 2017-08-06)"><metadata
     id="metadata53"><rdf:RDF><cc:Work
         rdf:about=""><dc:format>image/svg+xml</dc:format><dc:type
           rdf:resource="http://purl.org/dc/dcmitype/StillImage" /></cc:Work></rdf:RDF></metadata><defs
     id="defs51" /><sodipodi:namedview
     pagecolor="#ffffff"
     bordercolor="#666666"
     borderopacity="1"
     objecttolerance="10"
     gridtolerance="10"
     guidetolerance="10"
     inkscape:pageopacity="0"
     inkscape:pageshadow="2"
     inkscape:window-width="1920"
     inkscape:window-height="1052"
     id="namedview49"
     showgrid="false"
     inkscape:zoom="2.3507372"
     inkscape:cx="148.70159"
     inkscape:cy="56.754082"
     inkscape:window-x="0"
     inkscape:window-y="0"
     inkscape:window-maximized="1"
     inkscape:current-layer="g45" /><rect
     id="Speedy-Movers"
     x="0"
     y="0"
     width="450.128"
     height="146.292"
     style="fill:none;" /><g
     id="g45"><path
       d="M54.968,25.828c-0.066,-5.79 -1.724,-9.525 -6.778,-9.76c-7.086,-0.328 -10.964,0.806 -12.59,3.789c-1.183,2.171 -0.921,4.975 0.568,5.985c4.314,2.926 15.466,3.861 21.914,6.13c7.557,2.658 16.014,8.728 15.249,18.831c-0.684,9.04 -6.37,19.467 -16.242,26.073c-7.702,5.154 -19.679,6.422 -28.951,6.321c-9.1,-0.1 -19.476,-0.773 -26.498,-10.819c-1.757,-5.636 -2.088,-11.319 -1.061,-17.048l23.915,-0.69c-0.74,6.602 0.154,11.577 7.979,12.828c5.878,0.452 10.68,-0.579 13.353,-4.544c2.434,-4.581 2.679,-8.128 -0.52,-10.048c-4.345,-1.975 -9.541,-2.637 -13.995,-3.916c-5.774,-1.658 -10.58,-4.424 -14.691,-7.257c-4.067,-3.168 -5.351,-7.77 -5.458,-12.978c-0.093,-5.322 1.845,-11.219 9.844,-18.834c5.151,-4.072 11.168,-7.162 18.897,-8.311c6.917,-0.671 14.461,-0.697 22.618,-0.093c6.178,0.726 10.423,4.127 12.978,8.003c2.556,3.876 2.479,9.184 2.357,15.254l-22.888,1.084Z"
       id="path3"
       style="fill:#545451;fill-opacity:1" /><path
       d="M90.798,2.184c0,0 42.698,-0.007 48.27,-0.008c0.396,0 0.792,0.045 1.178,0.134c0,0 0,0 0.001,0c6.23,1.444 10.909,6.604 11.738,12.945c0.014,0.1 0.027,0.202 0.04,0.303c1.501,11.473 -3.224,22.876 -12.4,29.925c-1.357,1.037 -2.568,1.859 -3.501,2.306c-3.674,2.514 -8.081,4.033 -12.832,4.167l-0.008,0.01l-20.342,0l-7.62,29.913l-24.825,0l20.301,-79.695Zm28.886,16.049l-8.148,-0.007l-4.458,17.5l7.763,0c0.381,0.056 3.546,-0.024 4.578,-0.525c8.222,-2.064 8.049,-9.115 8.049,-9.134c0,-4.307 -3.483,-7.807 -7.784,-7.834Z"
       id="path5"
       style="fill:#545451;fill-opacity:1" /><path
       d="M293.496,19.402l-39.966,0l-2.454,11.164l32.245,0l-3.963,17.682l-32.168,0l-3.392,15.436l40.886,0l-3.963,17.682l-66.089,0l7.278,-33.118l-0.051,0l2.648,-11.814l7.628,-34.714l65.324,0l-3.963,17.682Z"
       id="path7"
       style="fill:#545451;fill-opacity:1" /><path
       d="M302.312,1.72c0,0 29.224,0.004 30.632,0c9.018,-0.026 17.451,0.115 23.62,3.236c7.834,3.965 13.778,14.803 11.498,31.462c-3.713,27.132 -14.711,38.622 -34.473,44.107c-7.068,1.962 -28.39,0.894 -34.514,0.841l-13.914,0l17.151,-79.646Zm20.853,18.796l-8.836,42.261c0.942,-0.003 12.062,0.123 14.085,-0.282c5.556,-1.113 8.678,-5.318 9.641,-7.677c2.788,-6.824 6.88,-19.348 4.624,-27.104c-1.403,-4.821 -6.381,-7.137 -12.237,-7.115l-7.277,-0.083Z"
       id="path9"
       style="fill:#545451;fill-opacity:1" /><path
       d="M401.882,29.394l20.425,-27.738l27.821,0l-39.845,47.171l-5.798,32.709l-25.306,0l5.934,-32.862l-21.058,-47.018l27.009,0l10.818,27.738Z"
       id="path11"
       style="fill:#545451;fill-opacity:1" /><g
       transform="matrix(4.50202,0,0,5.94969,-324.167,-672.105)"
       id="g37"><path
         d="M111.996,128.554l3.492,0l1.347,5.227l1.342,-5.227l3.481,0l0,8.59l-2.168,0l0,-6.551l-1.682,6.551l-1.963,0l-1.676,-6.551l0,6.551l-2.173,0l0,-8.59Z"
         style="fill:none;"
         id="path13" /><path
         d="M121.877,132.855c0,-1.402 0.391,-2.494 1.172,-3.275c0.781,-0.782 1.869,-1.172 3.264,-1.172c1.429,0 2.531,0.384 3.304,1.151c0.774,0.768 1.16,1.843 1.16,3.226c0,1.004 -0.168,1.827 -0.506,2.469c-0.338,0.643 -0.827,1.143 -1.465,1.5c-0.639,0.358 -1.435,0.537 -2.388,0.537c-0.969,0 -1.77,-0.155 -2.405,-0.463c-0.635,-0.309 -1.15,-0.797 -1.544,-1.465c-0.395,-0.668 -0.592,-1.504 -0.592,-2.508Zm2.654,0.012c0,0.867 0.162,1.49 0.484,1.869c0.322,0.379 0.761,0.568 1.315,0.568c0.571,0 1.012,-0.185 1.324,-0.556c0.313,-0.371 0.469,-1.037 0.469,-1.998c0,-0.809 -0.163,-1.4 -0.489,-1.773c-0.326,-0.373 -0.769,-0.559 -1.327,-0.559c-0.535,0 -0.965,0.189 -1.289,0.568c-0.324,0.379 -0.487,1.006 -0.487,1.881Z"
         style="fill:none;"
         id="path15" /><path
         d="M129.702,128.554l2.777,0l1.934,6.182l1.904,-6.182l2.695,0l-3.187,8.59l-2.877,0l-3.246,-8.59Z"
         style="fill:none;"
         id="path17" /><path
         d="M138.98,128.554l7.113,0l0,1.834l-4.453,0l0,1.366l4.131,0l0,1.751l-4.131,0l0,1.694l4.582,0l0,1.945l-7.242,0l0,-8.59Z"
         style="fill:none;"
         id="path19" /><path
         d="M146.547,137.144l0,-8.59l4.424,0c0.82,0 1.447,0.071 1.88,0.211c0.434,0.141 0.784,0.402 1.049,0.782c0.266,0.381 0.399,0.845 0.399,1.392c0,0.477 -0.102,0.888 -0.305,1.233c-0.203,0.346 -0.482,0.626 -0.838,0.841c-0.226,0.137 -0.537,0.25 -0.932,0.34c0.317,0.106 0.547,0.211 0.692,0.317c0.098,0.07 0.239,0.22 0.425,0.451c0.185,0.23 0.309,0.408 0.372,0.533l1.283,2.49l-3,0l-1.418,-2.625c-0.18,-0.34 -0.34,-0.56 -0.481,-0.662c-0.191,-0.133 -0.408,-0.199 -0.65,-0.199l-0.234,0l0,3.486l-2.666,0Zm2.666,-5.109l1.119,0c0.121,0 0.355,-0.039 0.703,-0.117c0.176,-0.036 0.319,-0.125 0.431,-0.27c0.111,-0.144 0.167,-0.311 0.167,-0.498c0,-0.277 -0.088,-0.49 -0.264,-0.639c-0.176,-0.148 -0.506,-0.222 -0.99,-0.222l-1.166,0l0,1.746Z"
         style="fill:none;"
         id="path21" /><path
         d="M154.243,134.302l2.525,-0.158c0.055,0.41 0.166,0.723 0.334,0.938c0.273,0.347 0.664,0.521 1.172,0.521c0.379,0 0.671,-0.089 0.876,-0.266c0.205,-0.178 0.307,-0.384 0.307,-0.619c0,-0.222 -0.097,-0.422 -0.292,-0.597c-0.196,-0.176 -0.649,-0.342 -1.36,-0.498c-1.164,-0.262 -1.994,-0.61 -2.49,-1.043c-0.5,-0.434 -0.75,-0.987 -0.75,-1.659c0,-0.441 0.128,-0.858 0.384,-1.25c0.256,-0.393 0.64,-0.702 1.154,-0.926c0.514,-0.225 1.218,-0.337 2.112,-0.337c1.098,0 1.935,0.204 2.511,0.612c0.576,0.408 0.919,1.058 1.028,1.948l-2.502,0.147c-0.066,-0.387 -0.206,-0.668 -0.419,-0.844c-0.212,-0.176 -0.506,-0.264 -0.881,-0.264c-0.309,0 -0.541,0.066 -0.698,0.197c-0.156,0.131 -0.234,0.29 -0.234,0.477c0,0.137 0.064,0.26 0.193,0.369c0.125,0.114 0.422,0.219 0.891,0.317c1.16,0.25 1.991,0.503 2.493,0.759c0.502,0.255 0.867,0.573 1.096,0.952c0.228,0.379 0.343,0.802 0.343,1.271c0,0.551 -0.153,1.059 -0.457,1.524c-0.305,0.464 -0.731,0.817 -1.278,1.057c-0.547,0.241 -1.236,0.361 -2.068,0.361c-1.461,0 -2.473,-0.282 -3.035,-0.844c-0.563,-0.563 -0.881,-1.277 -0.955,-2.145Z"
         style="fill:none;"
         id="path23" /><path
         d="M111.996,128.554l3.492,0l1.347,5.227l1.342,-5.227l3.481,0l0,8.59l-2.168,0l0,-6.551l-1.682,6.551l-1.963,0l-1.676,-6.551l0,6.551l-2.173,0l0,-8.59Z"
         style="fill-rule:nonzero;fill:#545451;fill-opacity:1"
         id="path25" /><path
         d="M121.877,132.855c0,-1.402 0.391,-2.494 1.172,-3.275c0.781,-0.782 1.869,-1.172 3.264,-1.172c1.429,0 2.531,0.384 3.304,1.151c0.774,0.768 1.16,1.843 1.16,3.226c0,1.004 -0.168,1.827 -0.506,2.469c-0.338,0.643 -0.827,1.143 -1.465,1.5c-0.639,0.358 -1.435,0.537 -2.388,0.537c-0.969,0 -1.77,-0.155 -2.405,-0.463c-0.635,-0.309 -1.15,-0.797 -1.544,-1.465c-0.395,-0.668 -0.592,-1.504 -0.592,-2.508Zm2.654,0.012c0,0.867 0.162,1.49 0.484,1.869c0.322,0.379 0.761,0.568 1.315,0.568c0.571,0 1.012,-0.185 1.324,-0.556c0.313,-0.371 0.469,-1.037 0.469,-1.998c0,-0.809 -0.163,-1.4 -0.489,-1.773c-0.326,-0.373 -0.769,-0.559 -1.327,-0.559c-0.535,0 -0.965,0.189 -1.289,0.568c-0.324,0.379 -0.487,1.006 -0.487,1.881Z"
         style="fill-rule:nonzero;fill:#545451;fill-opacity:1"
         id="path27" /><path
         d="M129.702,128.554l2.777,0l1.934,6.182l1.904,-6.182l2.695,0l-3.187,8.59l-2.877,0l-3.246,-8.59Z"
         style="fill-rule:nonzero;fill:#545451;fill-opacity:1"
         id="path29" /><path
         d="M138.98,128.554l7.113,0l0,1.834l-4.453,0l0,1.366l4.131,0l0,1.751l-4.131,0l0,1.694l4.582,0l0,1.945l-7.242,0l0,-8.59Z"
         style="fill-rule:nonzero;fill:#545451;fill-opacity:1"
         id="path31" /><path
         d="M146.547,137.144l0,-8.59l4.424,0c0.82,0 1.447,0.071 1.88,0.211c0.434,0.141 0.784,0.402 1.049,0.782c0.266,0.381 0.399,0.845 0.399,1.392c0,0.477 -0.102,0.888 -0.305,1.233c-0.203,0.346 -0.482,0.626 -0.838,0.841c-0.226,0.137 -0.537,0.25 -0.932,0.34c0.317,0.106 0.547,0.211 0.692,0.317c0.098,0.07 0.239,0.22 0.425,0.451c0.185,0.23 0.309,0.408 0.372,0.533l1.283,2.49l-3,0l-1.418,-2.625c-0.18,-0.34 -0.34,-0.56 -0.481,-0.662c-0.191,-0.133 -0.408,-0.199 -0.65,-0.199l-0.234,0l0,3.486l-2.666,0Zm2.666,-5.109l1.119,0c0.121,0 0.355,-0.039 0.703,-0.117c0.176,-0.036 0.319,-0.125 0.431,-0.27c0.111,-0.144 0.167,-0.311 0.167,-0.498c0,-0.277 -0.088,-0.49 -0.264,-0.639c-0.176,-0.148 -0.506,-0.222 -0.99,-0.222l-1.166,0l0,1.746Z"
         style="fill-rule:nonzero;fill:#545451;fill-opacity:1"
         id="path33" /><path
         d="M154.243,134.302l2.525,-0.158c0.055,0.41 0.166,0.723 0.334,0.938c0.273,0.347 0.664,0.521 1.172,0.521c0.379,0 0.671,-0.089 0.876,-0.266c0.205,-0.178 0.307,-0.384 0.307,-0.619c0,-0.222 -0.097,-0.422 -0.292,-0.597c-0.196,-0.176 -0.649,-0.342 -1.36,-0.498c-1.164,-0.262 -1.994,-0.61 -2.49,-1.043c-0.5,-0.434 -0.75,-0.987 -0.75,-1.659c0,-0.441 0.128,-0.858 0.384,-1.25c0.256,-0.393 0.64,-0.702 1.154,-0.926c0.514,-0.225 1.218,-0.337 2.112,-0.337c1.098,0 1.935,0.204 2.511,0.612c0.576,0.408 0.919,1.058 1.028,1.948l-2.502,0.147c-0.066,-0.387 -0.206,-0.668 -0.419,-0.844c-0.212,-0.176 -0.506,-0.264 -0.881,-0.264c-0.309,0 -0.541,0.066 -0.698,0.197c-0.156,0.131 -0.234,0.29 -0.234,0.477c0,0.137 0.064,0.26 0.193,0.369c0.125,0.114 0.422,0.219 0.891,0.317c1.16,0.25 1.991,0.503 2.493,0.759c0.502,0.255 0.867,0.573 1.096,0.952c0.228,0.379 0.343,0.802 0.343,1.271c0,0.551 -0.153,1.059 -0.457,1.524c-0.305,0.464 -0.731,0.817 -1.278,1.057c-0.547,0.241 -1.236,0.361 -2.068,0.361c-1.461,0 -2.473,-0.282 -3.035,-0.844c-0.563,-0.563 -0.881,-1.277 -0.955,-2.145Z"
         style="fill-rule:nonzero;fill:#545451;fill-opacity:1"
         id="path35" /></g><path
       d="M208.595,81.366l-64.725,0l3.914,-17.682l64.775,0l-3.964,17.682Z"
       id="path39"
       style="fill:#545451;fill-opacity:1" /><path
       d="M208.595,48.248l-57.394,0l3.913,-17.682l57.445,0l-3.964,17.682Z"
       id="path41"
       style="fill:#545451;fill-opacity:1" /><path
       d="M222.533,19.402l-64.947,0l3.914,-17.682l64.996,0l-3.963,17.682Z"
       id="path43"
       style="fill:#545451;fill-opacity:1" /></g></svg>