<?xml version="1.0" encoding="UTF-8" standalone="no"?>
<!-- Generator: Adobe Illustrator 16.0.0, SVG Export Plug-In . SVG Version: 6.00 Build 0)  -->

<svg
   xmlns:dc="http://purl.org/dc/elements/1.1/"
   xmlns:cc="http://creativecommons.org/ns#"
   xmlns:rdf="http://www.w3.org/1999/02/22-rdf-syntax-ns#"
   xmlns:svg="http://www.w3.org/2000/svg"
   xmlns="http://www.w3.org/2000/svg"
   xmlns:sodipodi="http://sodipodi.sourceforge.net/DTD/sodipodi-0.dtd"
   xmlns:inkscape="http://www.inkscape.org/namespaces/inkscape"
   version="1.1"
   id="Capa_1"
   x="0px"
   y="0px"
   width="422.39999"
   height="422.39999"
   viewBox="0 0 422.39999 422.39999"
   xml:space="preserve"
   inkscape:version="0.91 r13725"
   sodipodi:docname="twitter.svg"><metadata
     id="metadata42"><rdf:RDF><cc:Work
         rdf:about=""><dc:format>image/svg+xml</dc:format><dc:type
           rdf:resource="http://purl.org/dc/dcmitype/StillImage" /><dc:title></dc:title></cc:Work></rdf:RDF></metadata><defs
     id="defs40" /><sodipodi:namedview
     pagecolor="#ffffff"
     bordercolor="#666666"
     borderopacity="1"
     objecttolerance="10"
     gridtolerance="10"
     guidetolerance="10"
     inkscape:pageopacity="0"
     inkscape:pageshadow="2"
     inkscape:window-width="1920"
     inkscape:window-height="1056"
     id="namedview38"
     showgrid="false"
     fit-margin-top="0"
     fit-margin-left="0"
     fit-margin-right="0"
     fit-margin-bottom="0"
     inkscape:zoom="1.8509804"
     inkscape:cx="88.706157"
     inkscape:cy="156.77092"
     inkscape:window-x="0"
     inkscape:window-y="0"
     inkscape:window-maximized="1"
     inkscape:current-layer="g3" /><g
     id="g3"
     transform="translate(0,-87.599996)"><g
       id="post-twitter"
       style="fill:#f7f7f7;fill-opacity:1"
       transform="matrix(0.82823529,0,0,0.82823529,0,87.599996)"><path
         d="M 459,0 51,0 C 22.95,0 0,22.95 0,51 l 0,408 c 0,28.05 22.95,51 51,51 l 408,0 c 28.05,0 51,-22.95 51,-51 L 510,51 C 510,22.95 487.05,0 459,0 Z m -58.65,186.15 c -2.55,117.3 -76.5,198.9 -188.7,204 -45.9,2.55 -79.05,-12.75 -109.65,-30.6 33.15,5.101 76.5,-7.649 99.45,-28.05 -33.15,-2.55 -53.55,-20.4 -63.75,-48.45 10.2,2.55 20.4,0 28.05,0 -30.6,-10.2 -51,-28.05 -53.55,-68.85 7.65,5.1 17.85,7.65 28.05,7.65 -22.95,-12.75 -38.25,-61.2 -20.4,-91.8 33.15,35.7 73.95,66.3 140.25,71.4 -17.85,-71.4 79.051,-109.65 117.301,-61.2 17.85,-2.55 30.6,-10.2 43.35,-15.3 -5.1,17.85 -15.3,28.05 -28.05,38.25 12.75,-2.55 25.5,-5.1 35.7,-10.2 -2.551,12.75 -15.301,22.95 -28.051,33.15 z"
         id="path6"
         style="fill:#f7f7f7;fill-opacity:1"
         inkscape:connector-curvature="0" /></g></g><g
     id="g8"
     transform="translate(0,-87.599996)" /><g
     id="g10"
     transform="translate(0,-87.599996)" /><g
     id="g12"
     transform="translate(0,-87.599996)" /><g
     id="g14"
     transform="translate(0,-87.599996)" /><g
     id="g16"
     transform="translate(0,-87.599996)" /><g
     id="g18"
     transform="translate(0,-87.599996)" /><g
     id="g20"
     transform="translate(0,-87.599996)" /><g
     id="g22"
     transform="translate(0,-87.599996)" /><g
     id="g24"
     transform="translate(0,-87.599996)" /><g
     id="g26"
     transform="translate(0,-87.599996)" /><g
     id="g28"
     transform="translate(0,-87.599996)" /><g
     id="g30"
     transform="translate(0,-87.599996)" /><g
     id="g32"
     transform="translate(0,-87.599996)" /><g
     id="g34"
     transform="translate(0,-87.599996)" /><g
     id="g36"
     transform="translate(0,-87.599996)" /></svg>