<?xml version="1.0" encoding="UTF-8" standalone="no"?>
<!-- Created with Inkscape (http://www.inkscape.org/) -->

<svg
   xmlns:dc="http://purl.org/dc/elements/1.1/"
   xmlns:cc="http://creativecommons.org/ns#"
   xmlns:rdf="http://www.w3.org/1999/02/22-rdf-syntax-ns#"
   xmlns:svg="http://www.w3.org/2000/svg"
   xmlns="http://www.w3.org/2000/svg"
   xmlns:sodipodi="http://sodipodi.sourceforge.net/DTD/sodipodi-0.dtd"
   xmlns:inkscape="http://www.inkscape.org/namespaces/inkscape"
   width="202.54675mm"
   height="65.595398mm"
   viewBox="0 0 717.68533 232.42464"
   id="svg2"
   version="1.1"
   inkscape:version="0.91 r13725"
   sodipodi:docname="logo.svg"
   style="enable-background:new">
  <defs
     id="defs4" />
  <sodipodi:namedview
     id="base"
     pagecolor="#ffffff"
     bordercolor="#666666"
     borderopacity="1.0"
     inkscape:pageopacity="0.0"
     inkscape:pageshadow="2"
     inkscape:zoom="0.98994949"
     inkscape:cx="218.58461"
     inkscape:cy="154.98843"
     inkscape:document-units="px"
     inkscape:current-layer="layer1"
     showgrid="false"
     inkscape:snap-global="false"
     inkscape:window-width="1920"
     inkscape:window-height="1029"
     inkscape:window-x="0"
     inkscape:window-y="1107"
     inkscape:window-maximized="1"
     fit-margin-top="0"
     fit-margin-left="0"
     fit-margin-right="0"
     fit-margin-bottom="0" />
  <metadata
     id="metadata7">
    <rdf:RDF>
      <cc:Work
         rdf:about="">
        <dc:format>image/svg+xml</dc:format>
        <dc:type
           rdf:resource="http://purl.org/dc/dcmitype/StillImage" />
        <dc:title />
      </cc:Work>
    </rdf:RDF>
  </metadata>
  <g
     inkscape:label="Layer 1"
     inkscape:groupmode="layer"
     id="layer1"
     transform="translate(-10.607846,-8.9763714)">
    <path
       style="fill:#545451;fill-opacity:1;stroke:#545451;stroke-opacity:0"
       d="m 387.19889,237.40388 c -8.16236,-4.13724 -13.65894,-11.49893 -16.03675,-21.47832 -0.97207,-4.07965 -1.38718,-1.60896 -1.51935,9.04281 l -0.18185,14.65613 -9.07232,0 -9.07232,0 0.63458,-27.53767 c 0.34903,-15.14574 0.3003,-26.53755 -0.10836,-25.31514 -0.40858,1.22239 -2.8663,13.4145 -5.46157,27.09356 l -4.71869,24.871 -7.81202,0 -7.81202,0 -4.66946,-24.871 c -2.56819,-13.67906 -5.09646,-26.46986 -5.61836,-28.42401 -0.52188,-1.95415 -1.04163,9.43766 -1.15497,25.31513 l -0.206,28.86813 -7.99426,0 -7.99425,0 0,-40.85951 0,-40.85951 13.15316,0 13.15317,0 4.16771,22.20487 c 2.29225,12.21268 4.58214,22.20549 5.08868,22.20626 0.50653,7.6e-4 2.37486,-8.19273 4.15186,-18.20775 5.17402,-29.16038 3.11857,-26.20338 18.21428,-26.20338 l 13.13116,0 0.18185,14.65613 c 0.12524,10.08761 0.58276,12.99485 1.46801,9.32662 6.458,-26.76003 40.22679,-34.16315 55.57865,-12.18448 2.23013,3.19278 3.10168,3.7592 2.34724,1.52548 -0.66003,-1.95415 -1.65233,-5.79455 -2.20512,-8.53423 l -1.00507,-4.98123 10.26462,0.53998 10.26462,0.53998 6.63651,27.53576 c 7.58475,31.47017 6.0121,32.26025 15.10059,-7.58634 l 4.76932,-20.91008 35.76152,0.48033 35.7615,0.48033 0.6076,8.36994 0.6076,8.36997 -16.45302,0.51254 -16.45303,0.51255 -0.65535,5.77363 -0.65537,5.77363 15.19894,0 15.19894,0 0,8.8825 0,8.8825 -14.82694,0 -14.82695,0 0,7.10601 0,7.106 16.60345,0 16.60344,0 0,9.77075 0,9.77075 -26.6475,0 -26.64751,0 -0.13644,-37.75063 -0.13643,-37.75064 -10.79816,37.82825 -10.79817,37.82825 -10.79901,-0.52174 -10.79901,-0.52174 -7.34466,-25.52964 -7.34467,-25.52965 -0.78433,14.94341 c -1.00997,19.24446 -5.8756,28.98171 -17.38094,34.78351 -4.35961,2.19842 -10.78547,3.99712 -14.27971,3.99712 -3.49423,0 -9.90182,-1.7987 -14.23906,-3.99712 z m 21.24597,-18.99829 c 6.65582,-6.65582 7.27347,-30.45951 0.97105,-37.4236 -4.10234,-4.53306 -11.85357,-4.53306 -15.95592,0 -3.63293,4.01432 -5.49363,17.92087 -3.68663,27.55303 1.39356,7.42836 6.55518,13.32448 11.66459,13.32448 1.95415,0 5.10726,-1.55426 7.00691,-3.45391 z m 209.78767,20.67452 c -9.03243,-3.11099 -18.15942,-18.0437 -15.40911,-25.21089 0.71516,-1.86369 3.60953,-2.66873 9.59497,-2.66873 8.13671,0 8.65697,0.29247 10.27062,5.77363 1.39841,4.75003 2.70243,5.87077 7.35535,6.3215 4.23951,0.41071 6.14561,-0.36772 7.61263,-3.10887 3.07391,-5.74366 -0.42913,-9.84644 -12.14949,-14.22956 -19.04808,-7.1235 -26.18459,-20.86815 -18.85503,-36.31404 3.88625,-8.18969 12.19415,-12.51823 24.07737,-12.54468 14.47139,-0.0322 23.11345,7.00015 25.00618,20.34851 0.59543,4.19921 0.12152,4.47051 -8.69687,4.97822 -5.68242,0.32716 -9.32663,-0.19344 -9.32663,-1.33238 0,-2.30943 -6.50272,-8.97534 -8.75561,-8.97534 -2.97048,0 -7.10385,5.37518 -6.115,7.95213 0.53184,1.38589 6.02143,4.20184 12.19913,6.25764 13.70078,4.55932 19.56469,9.70873 22.1998,19.4948 6.35092,23.58551 -14.78114,41.60248 -39.00831,33.25806 z m -71.12154,-40.4978 0,-41.04218 22.35256,0.6268 22.35255,0.6268 5.1832,5.80165 c 4.52297,5.06264 5.18321,7.17847 5.18321,16.61029 0,9.84515 -0.51922,11.32784 -5.82483,16.63344 l -5.82482,5.82483 3.78769,5.10065 c 3.15036,4.24237 13.19146,27.07051 13.19146,29.99035 0,0.47825 -4.99641,0.85928 -11.10313,0.84672 l -11.10312,-0.0229 -6.21776,-15.50181 c -4.08334,-10.1804 -7.28496,-15.70578 -9.32662,-16.09592 -2.77607,-0.5305 -3.10888,1.13149 -3.10888,15.52468 l 0,16.11876 -9.77075,0 -9.77076,0 0,-41.04219 z m 30.75265,-9.54203 c 4.38035,-0.92653 4.9256,-1.75754 4.44125,-6.76887 -0.51693,-5.3483 -1.03371,-5.74751 -8.10226,-6.25895 l -7.55013,-0.54627 0,7.93008 c 0,8.50846 -0.68966,8.16128 11.21114,5.64401 z M 33.104648,139.82974 c -13.16116,-3.65236 -22.496802,-17.81841 -22.496802,-34.13698 0,-8.238418 2.87395,-9.453438 24.117984,-10.196428 15.713529,-0.54956 15.857662,-0.51575 16.350618,3.83572 1.107813,9.778998 2.460086,12.444518 7.683757,15.145778 10.33461,5.34424 26.45062,-0.73088 29.01205,-10.93643 1.54404,-6.151928 -2.70267,-10.800348 -12.16013,-13.310378 -29.176593,-7.74353 -40.296114,-14.14173 -44.723187,-25.73386 -2.493362,-6.52878 -2.631502,-9.06896 -0.872976,-16.0527 6.609717,-26.24957 32.908373,-41.3253598 68.528653,-39.2842698 17.248095,0.9883298 26.260735,3.9203398 32.175045,10.4672398 6.77977,7.50492 10.33102,24.58222 5.7063,27.44046 -1.14946,0.7104 -9.94313,1.7571 -19.54151,2.32599 -17.317005,1.02637 -17.451585,1.0029 -17.451585,-3.04405 0,-6.37588 -7.60628,-12.7994 -15.15615,-12.7994 -4.80078,0 -7.80722,1.37206 -11.83746,5.4023 -5.10064,5.10065 -5.23618,5.58587 -2.42728,8.68966 1.66041,1.83473 9.68252,4.96965 18.15439,7.09446 17.478905,4.38384 29.787505,10.16747 36.137505,16.98049 3.88094,4.16393 4.44125,6.37135 4.44125,17.49673 0,10.62678 -0.79142,14.077848 -4.78707,20.874478 -6.31481,10.74156 -17.33839,20.49658 -29.641485,26.23046 -8.89294,4.14457 -12.41056,4.69396 -32.1902,5.02756 -12.213445,0.20599 -25.273216,-0.47658 -29.021717,-1.51683 z m 93.018692,-1.9099 c 0.0236,-1.22134 7.1006,-30.20051 15.72659,-64.398138 l 15.68363,-62.17753 39.78905,0 c 35.6658,0 40.50114,0.35346 46.66065,3.41082 10.72742,5.32471 13.92084,11.89928 13.06938,26.90716 -1.18579,20.90072 -12.14297,37.87679 -29.55294,45.78671 -6.34619,2.88328 -12.72873,3.85741 -28.79979,4.39555 l -20.64673,0.69136 -1.83472,6.48147 c -1.00909,3.564808 -3.66693,14.275868 -5.90631,23.802348 l -4.07159,17.32088 -20.0801,0 c -14.90265,0 -20.06901,-0.57256 -20.03712,-2.22063 z m 80.70188,-74.906748 c 6.83373,-2.85532 9.85668,-7.38775 9.85668,-14.77856 0,-7.49017 -2.99989,-9.3546 -15.0516,-9.3546 l -10.78801,0 -2.29016,10.21488 c -1.25959,5.61819 -2.69436,11.61388 -3.18841,13.32376 -0.7629,2.64042 0.33297,3.10887 7.27276,3.10887 4.49407,0 10.87899,-1.13146 14.18874,-2.51435 z m 31.27145,74.906748 c 0.0533,-1.22134 1.50686,-7.8166 3.2303,-14.65612 l 3.13353,-12.43551 52.26484,-0.47163 c 28.74567,-0.2594 53.21032,-0.10881 54.36591,0.33463 1.60008,0.614 1.54263,3.05627 -0.241,10.24238 -1.28814,5.18987 -2.8392,11.63455 -3.4468,14.3215 l -1.1047,4.88538 -54.14942,0 c -42.18683,0 -54.12805,-0.49058 -54.05266,-2.22063 z m 118.25295,-7.99425 c 1.36423,-5.61818 7.69644,-33.398208 14.07156,-61.733398 6.37511,-28.33518 12.01864,-52.91751 12.54115,-54.62739 0.8767,-2.8689 4.98616,-3.10888 53.2371,-3.10888 35.41543,0 52.28705,0.60338 52.28705,1.86994 0,1.02846 -1.26322,7.42387 -2.80714,14.21201 l -2.80716,12.34206 -32.51196,0 -32.51197,0 -1.98741,7.89268 c -1.09306,4.34097 -1.98738,8.73781 -1.98738,9.77075 0,1.22926 8.48984,1.87808 24.57491,1.87808 13.51622,0 24.97428,0.39934 25.46235,0.88743 0.4881,0.48808 -0.31415,6.48377 -1.78275,13.32375 l -2.67019,12.43633 -26.06247,0 -26.06247,0 -2.2857,10.21488 c -1.25712,5.618178 -2.66901,11.214158 -3.13751,12.435498 -0.66313,1.72875 6.66694,2.22063 33.09176,2.22063 20.78277,0 33.94358,0.66922 33.94358,1.72601 0,0.94931 -1.32244,7.74442 -2.93877,15.10026 l -2.93876,13.37424 -54.59913,0 -54.59913,0 2.48044,-10.21488 z m 110.88453,9.91851 c 0.0361,-0.32554 6.29311,-29.37119 13.90442,-64.545898 l 13.83874,-63.95403 32.69069,-0.48577 c 36.92298,-0.54866 47.99242,1.05377 58.16035,8.41937 10.64031,7.70781 15.41317,19.04571 15.35634,36.47892 -0.12223,37.48868 -17.68475,68.563158 -44.833,79.325818 -9.21511,3.65324 -13.69509,4.07588 -49.65608,4.68449 -21.73993,0.36793 -39.4976,0.40262 -39.46146,0.0771 z m 74.52057,-33.01578 c 7.57599,-3.801 13.07725,-13.247918 16.15694,-27.745258 3.3465,-15.75327 2.99894,-26.86878 -0.97749,-31.2627 -4.10748,-4.53872 -14.11685,-7.64435 -22.131,-6.86666 l -6.09008,0.59099 -6.7114,31.97701 c -3.69127,17.58735 -6.74657,32.976288 -6.78956,34.197628 -0.12222,3.47425 19.13009,2.82797 26.54259,-0.89101 z m 72.86329,32.70106 c 0,-0.33609 2.37634,-12.34387 5.28074,-26.68394 l 5.28075,-26.072848 -16.828,-36.68321 c -9.25539,-20.17576 -16.82799,-37.37161 -16.82799,-38.21301 0,-0.84139 9.78621,-1.30534 21.74712,-1.031 l 21.7471,0.4988 7.56052,18.65326 c 4.15829,10.25929 7.5626,19.65254 7.56514,20.87388 0.009,4.58251 3.10287,1.4919 19.20013,-19.18336 l 16.53076,-21.23203 21.21988,0 c 11.67095,0 21.21049,0.59957 21.199,1.33238 -0.0107,0.73281 -11.2946,14.52289 -25.07359,30.64464 -13.77898,16.12174 -27.76146,32.59466 -31.07218,36.60648 -5.34375,6.4754 -6.61725,10.24569 -11.34466,33.586548 -2.92887,14.46078 -5.3252,26.56732 -5.3252,26.90341 0,0.3361 -9.19339,0.61109 -20.42976,0.61109 -11.23637,0 -20.42976,-0.27499 -20.42976,-0.61109 z M 251.5831,80.213152 c 0.67663,-2.70322 2.14606,-8.51237 3.2654,-12.90921 l 2.03518,-7.99425 45.62963,-0.47411 45.62963,-0.47412 -0.0343,4.02712 c -0.0188,2.21491 -1.06999,8.02424 -2.3359,12.90962 l -2.30165,8.8825 -46.55912,0.4737 -46.55911,0.47371 1.23023,-4.91496 z m 13.48767,-55.54522 3.56913,-14.21201 52.18701,0 c 35.34544,0 52.18703,0.60346 52.18703,1.86994 0,1.02846 -1.26321,7.42387 -2.80713,14.21201 l -2.80716,12.34206 -52.94901,0 -52.94898,0 3.56911,-14.212 z"
       id="path3367"
       inkscape:connector-curvature="0" />
  </g>
</svg>
